<svg xmlns="http://www.w3.org/2000/svg" viewBox="0 0 600 315" class="sleep-chart dark"><style>svg.sleep-chart{width:100%;height:auto;background:white}.sleep-chart text{font-family:sans-serif;font-size:11px;fill:black}.sleep-chart .notch{stroke-dasharray:4;stroke:#7F7F7F}.sleep-chart .day-0,.day-6{font-weight:bold}.sleep-chart .day-missing{opacity: 0.5}.sleep-chart .chart-sleep{fill:#CCCCFF;stroke:#AAAACC}.sleep-chart .chart-sleep-overlay{opacity: 0.5}.sleep-chart.dark{background:#3F3F3F}.sleep-chart.dark text{fill:white}.sleep-chart.dark .chart-sleep{fill:#0000FF;stroke:#6666CC}</style><text class="date day-2" text-anchor="end" x="44" y="12">Tue 31<title>Tuesday, 31 December 2019</title></text><rect class="chart-sleep" x="219.02937152777778" y="3" width="125.64942673611111" height="9"></rect><line class="notch" x1="0" y1="15" x2="600" y2="15"></line><text class="date day-3" text-anchor="end" x="44" y="27">Wed 1<title>Wednesday, 1 January 2020</title></text><rect class="chart-sleep" x="180.8935421875" y="18" width="155.81288020833335" height="9"></rect><line class="notch" x1="0" y1="30" x2="600" y2="30"></line><text class="date day-4" text-anchor="end" x="44" y="42">Thu 2<title>Thursday, 2 January 2020</title></text><rect class="chart-sleep" x="184.4727076388889" y="33" width="180.41401961805556" height="9"></rect><line class="notch" x1="0" y1="45" x2="600" y2="45"></line><text class="date day-5" text-anchor="end" x="44" y="57">Fri 3<title>Friday, 3 January 2020</title></text><rect class="chart-sleep" x="169.56840104166668" y="48" width="211.29723229166666" height="9"></rect><line class="notch" x1="0" y1="60" x2="600" y2="60"></line><text class="date day-6" text-anchor="end" x="44" y="72">Sat 4<title>Saturday, 4 January 2020</title></text><rect class="chart-sleep" x="193.3609876736111" y="63" width="196.89601006944443" height="9"></rect><line class="notch" x1="0" y1="75" x2="600" y2="75"></line><text class="date day-0" text-anchor="end" x="44" y="87">Sun 5<title>Sunday, 5 January 2020</title></text><rect class="chart-sleep" x="196.8717480902778" y="78" width="199.2017909722222" height="9"></rect><line class="notch" x1="0" y1="90" x2="600" y2="90"></line><text class="date day-1" text-anchor="end" x="44" y="102">Mon 6<title>Monday, 6 January 2020</title></text><rect class="chart-sleep" x="237.77540225694446" y="93" width="153.30230173611108" height="9"></rect><line class="notch" x1="0" y1="105" x2="600" y2="105"></line><text class="date day-2" text-anchor="end" x="44" y="117">Tue 7<title>Tuesday, 7 January 2020</title></text><rect class="chart-sleep" x="216.89977100694446" y="108" width="107.86493350694444" height="9"></rect><line class="notch" x1="0" y1="120" x2="600" y2="120"></line><text class="date day-3" text-anchor="end" x="44" y="132">Wed 8<title>Wednesday, 8 January 2020</title></text><rect class="chart-sleep" x="204.53727447916668" y="123" width="182.45367031249995" height="9"></rect><line class="notch" x1="0" y1="135" x2="600" y2="135"></line><text class="date day-4" text-anchor="end" x="44" y="147">Thu 9<title>Thursday, 9 January 2020</title></text><rect class="chart-sleep" x="200.84258038194446" y="138" width="152.74327413194442" height="9"></rect><line class="notch" x1="0" y1="150" x2="600" y2="150"></line><text class="date day-5" text-anchor="end" x="44" y="162">Fri 10<title>Friday, 10 January 2020</title></text><rect class="chart-sleep" x="174.82621024305556" y="153" width="155.3699657986111" height="9"></rect><line class="notch" x1="0" y1="165" x2="600" y2="165"></line><text class="date day-6" text-anchor="end" x="44" y="177">Sat 11<title>Saturday, 11 January 2020</title></text><rect class="chart-sleep" x="167.42816944444445" y="168" width="212.50672760416668" height="9"></rect><line class="notch" x1="0" y1="180" x2="600" y2="180"></line><text class="date day-0" text-anchor="end" x="44" y="192">Sun 12<title>Sunday, 12 January 2020</title></text><rect class="chart-sleep" x="212.14721736111113" y="183" width="151.8103923611111" height="9"></rect><line class="notch" x1="0" y1="195" x2="600" y2="195"></line><text class="date day-1" text-anchor="end" x="44" y="207">Mon 13<title>Monday, 13 January 2020</title></text><rect class="chart-sleep" x="179.85271163194446" y="198" width="160.61873697916667" height="9"></rect><line class="notch" x1="0" y1="210" x2="600" y2="210"></line><text class="date day-2" text-anchor="end" x="44" y="222">Tue 14<title>Tuesday, 14 January 2020</title></text><rect class="chart-sleep" x="200.32812621527776" y="213" width="200.02275416666663" height="9"></rect><line class="notch" x1="0" y1="225" x2="600" y2="225"></line><text class="date day-3" text-anchor="end" x="44" y="237">Wed 15<title>Wednesday, 15 January 2020</title></text><rect class="chart-sleep" x="176.26281875" y="228" width="176.3304529513889" height="9"></rect><line class="notch" x1="0" y1="240" x2="600" y2="240"></line><text class="date day-4" text-anchor="end" x="44" y="252">Thu 16<title>Thursday, 16 January 2020</title></text><rect class="chart-sleep" x="178.5889689236111" y="243" width="169.7483713541667" height="9"></rect><line class="notch" x1="0" y1="255" x2="600" y2="255"></line><text class="date day-5" text-anchor="end" x="44" y="267">Fri 17<title>Friday, 17 January 2020</title></text><rect class="chart-sleep" x="191.2330315972222" y="258" width="194.41112604166665" height="9"></rect><line class="notch" x1="0" y1="270" x2="600" y2="270"></line><text class="date day-6" text-anchor="end" x="44" y="282">Sat 18<title>Saturday, 18 January 2020</title></text><rect class="chart-sleep" x="175.9360560763889" y="273" width="161.66917083333334" height="9"></rect><line class="notch" x1="0" y1="285" x2="600" y2="285"></line><text class="date day-0" text-anchor="end" x="44" y="297">Sun 19<title>Sunday, 19 January 2020</title></text><rect class="chart-sleep" x="160.3057079861111" y="288" width="206.91302777777776" height="9"></rect><line class="notch" x1="0" y1="300" x2="600" y2="300"></line><text class="date day-1" text-anchor="end" x="44" y="312">Mon 20<title>Monday, 20 January 2020</title></text><rect class="chart-sleep" x="178.2253154513889" y="303" width="175.38020173611113" height="9"></rect><line x1="50" x2="50" y1="0" y2="312" class="notch"></line><line x1="183.75" x2="183.75" y1="0" y2="312" class="notch"></line><line x1="322.5" x2="322.5" y1="0" y2="312" class="notch"></line><line x1="461.25" x2="461.25" y1="0" y2="312" class="notch"></line><line x1="50" x2="50" y1="0" y2="312" class="notch"></line><line x1="595" x2="595" y1="0" y2="312" class="notch"></line><rect class="chart-sleep chart-sleep-overlay" x="219.02937152777778" y="3" width="125.64942673611111" height="9"></rect><rect class="chart-sleep chart-sleep-overlay" x="180.8935421875" y="18" width="155.81288020833335" height="9"></rect><rect class="chart-sleep chart-sleep-overlay" x="184.4727076388889" y="33" width="180.41401961805556" height="9"></rect><rect class="chart-sleep chart-sleep-overlay" x="169.56840104166668" y="48" width="211.29723229166666" height="9"></rect><rect class="chart-sleep chart-sleep-overlay" x="193.3609876736111" y="63" width="196.89601006944443" height="9"></rect><rect class="chart-sleep chart-sleep-overlay" x="196.8717480902778" y="78" width="199.2017909722222" height="9"></rect><rect class="chart-sleep chart-sleep-overlay" x="237.77540225694446" y="93" width="153.30230173611108" height="9"></rect><rect class="chart-sleep chart-sleep-overlay" x="216.89977100694446" y="108" width="107.86493350694444" height="9"></rect><rect class="chart-sleep chart-sleep-overlay" x="204.53727447916668" y="123" width="182.45367031249995" height="9"></rect><rect class="chart-sleep chart-sleep-overlay" x="200.84258038194446" y="138" width="152.74327413194442" height="9"></rect><rect class="chart-sleep chart-sleep-overlay" x="174.82621024305556" y="153" width="155.3699657986111" height="9"></rect><rect class="chart-sleep chart-sleep-overlay" x="167.42816944444445" y="168" width="212.50672760416668" height="9"></rect><rect class="chart-sleep chart-sleep-overlay" x="212.14721736111113" y="183" width="151.8103923611111" height="9"></rect><rect class="chart-sleep chart-sleep-overlay" x="179.85271163194446" y="198" width="160.61873697916667" height="9"></rect><rect class="chart-sleep chart-sleep-overlay" x="200.32812621527776" y="213" width="200.02275416666663" height="9"></rect><rect class="chart-sleep chart-sleep-overlay" x="176.26281875" y="228" width="176.3304529513889" height="9"></rect><rect class="chart-sleep chart-sleep-overlay" x="178.5889689236111" y="243" width="169.7483713541667" height="9"></rect><rect class="chart-sleep chart-sleep-overlay" x="191.2330315972222" y="258" width="194.41112604166665" height="9"></rect><rect class="chart-sleep chart-sleep-overlay" x="175.9360560763889" y="273" width="161.66917083333334" height="9"></rect><rect class="chart-sleep chart-sleep-overlay" x="160.3057079861111" y="288" width="206.91302777777776" height="9"></rect><rect class="chart-sleep chart-sleep-overlay" x="178.2253154513889" y="303" width="175.38020173611113" height="9"></rect><text x="50" y="12">6pm</text><text x="183.75" y="12" text-anchor="middle">midnight</text><text x="322.5" y="12" text-anchor="middle">6am</text><text x="461.25" y="12" text-anchor="middle">noon</text><text x="595" y="12" text-anchor="end">6pm</text><text x="50" y="312">6pm</text><text x="183.75" y="312" text-anchor="middle">midnight</text><text x="322.5" y="312" text-anchor="middle">6am</text><text x="461.25" y="312" text-anchor="middle">noon</text><text x="595" y="312" text-anchor="end">6pm</text></svg>
