<svg xmlns="http://www.w3.org/2000/svg" viewBox="0 0 600 330" class="sleep-chart dark"><style>svg.sleep-chart{width:100%;height:auto;background:white}.sleep-chart text{font-family:sans-serif;font-size:11px;fill:black}.sleep-chart .notch{stroke-dasharray:4;stroke:#7F7F7F}.sleep-chart .day-0,.day-6{font-weight:bold}.sleep-chart .day-missing{opacity: 0.5}.sleep-chart .chart-sleep{fill:#CCCCFF;stroke:#AAAACC}.sleep-chart .chart-sleep-overlay{opacity: 0.5}.sleep-chart.dark{background:#3F3F3F}.sleep-chart.dark text{fill:white}.sleep-chart.dark .chart-sleep{fill:#0000FF;stroke:#6666CC}</style><text class="date day-2" text-anchor="end" x="44" y="12">Tue 31<title>Tuesday, 31 December 2019</title></text><rect class="chart-sleep" x="225.97218385416667" y="3" width="168.70484288194444" height="9"></rect><line class="notch" x1="0" y1="15" x2="600" y2="15"></line><text class="date day-3" text-anchor="end" x="44" y="27">Wed 1<title>Wednesday, 1 January 2020</title></text><rect class="chart-sleep" x="233.00587100694446" y="18" width="178.39749392361108" height="9"></rect><line class="notch" x1="0" y1="30" x2="600" y2="30"></line><text class="date day-4" text-anchor="end" x="44" y="42">Thu 2<title>Thursday, 2 January 2020</title></text><rect class="chart-sleep" x="223.62073750000002" y="33" width="245.0989420138889" height="9"></rect><line class="notch" x1="0" y1="45" x2="600" y2="45"></line><text class="date day-5" text-anchor="end" x="44" y="57">Fri 3<title>Friday, 3 January 2020</title></text><rect class="chart-sleep" x="283.7326911458333" y="48" width="257.64344513888886" height="9"></rect><line class="notch" x1="0" y1="60" x2="600" y2="60"></line><text class="date day-6" text-anchor="end" x="44" y="72">Sat 4<title>Saturday, 4 January 2020</title></text><rect class="chart-sleep" x="230.93284965277778" y="63" width="319.64967673611113" height="9"></rect><line class="notch" x1="0" y1="75" x2="600" y2="75"></line><text class="date day-0" text-anchor="end" x="44" y="87">Sun 5<title>Sunday, 5 January 2020</title></text><rect class="chart-sleep" x="317.34236059027774" y="78" width="218.64484774305555" height="9"></rect><line class="notch" x1="0" y1="90" x2="600" y2="90"></line><text class="date day-1" text-anchor="end" x="44" y="102">Mon 6<title>Monday, 6 January 2020</title></text><rect class="chart-sleep" x="335.49015399305557" y="93" width="222.8704019097222" height="9"></rect><line class="notch" x1="0" y1="105" x2="600" y2="105"></line><text class="date day-2" text-anchor="end" x="44" y="117">Tue 7<title>Tuesday, 7 January 2020</title></text><rect class="chart-sleep" x="315.0856946180555" y="108" width="303.52747274305557" height="9"></rect><line class="notch" x1="0" y1="120" x2="600" y2="120"></line><text class="date day-3" text-anchor="end" x="44" y="132">Wed 8<title>Wednesday, 8 January 2020</title></text><rect class="chart-sleep" x="364.30448211805555" y="123" width="215.40982083333333" height="9"></rect><line class="notch" x1="0" y1="135" x2="600" y2="135"></line><text class="date day-4" text-anchor="end" x="44" y="147">Thu 9<title>Thursday, 9 January 2020</title></text><rect class="chart-sleep" x="412.1423024305555" y="138" width="232.85769756944447" height="9"></rect><line class="notch" x1="0" y1="150" x2="600" y2="150"></line><text class="date day-5" text-anchor="end" x="44" y="162">Fri 10<title>Friday, 10 January 2020</title></text><rect class="chart-sleep" x="45" y="153" width="70.91656006944444" height="9"></rect><rect class="chart-sleep" x="448.99173940972224" y="153" width="166.78001423611113" height="9"></rect><line class="notch" x1="0" y1="165" x2="600" y2="165"></line><text class="date day-6" text-anchor="end" x="44" y="177">Sat 11<title>Saturday, 11 January 2020</title></text><rect class="chart-sleep" x="460.07024600694444" y="168" width="184.92975399305558" height="9"></rect><line class="notch" x1="0" y1="180" x2="600" y2="180"></line><text class="date day-0" text-anchor="end" x="44" y="192">Sun 12<title>Sunday, 12 January 2020</title></text><rect class="chart-sleep" x="45" y="183" width="102.52348246527777" height="9"></rect><rect class="chart-sleep" x="464.33039131944446" y="183" width="180.66960868055554" height="9"></rect><line class="notch" x1="0" y1="195" x2="600" y2="195"></line><text class="date day-1" text-anchor="end" x="44" y="207">Mon 13<title>Monday, 13 January 2020</title></text><rect class="chart-sleep" x="45" y="198" width="77.3868001736111" height="9"></rect><rect class="chart-sleep" x="479.3145112847222" y="198" width="165.6854887152778" height="9"></rect><line class="notch" x1="0" y1="210" x2="600" y2="210"></line><text class="date day-2" text-anchor="end" x="44" y="222">Tue 14<title>Tuesday, 14 January 2020</title></text><rect class="chart-sleep" x="45" y="213" width="149.86058229166667" height="9"></rect><rect class="chart-sleep" x="511.39607430555554" y="213" width="133.60392569444446" height="9"></rect><line class="notch" x1="0" y1="225" x2="600" y2="225"></line><text class="date day-3" text-anchor="end" x="44" y="237">Wed 15<title>Wednesday, 15 January 2020</title></text><rect class="chart-sleep" x="45" y="228" width="154.32553802083333" height="9"></rect><rect class="chart-sleep" x="556.8278026041667" y="228" width="88.17219739583335" height="9"></rect><line class="notch" x1="0" y1="240" x2="600" y2="240"></line><text class="date day-4" text-anchor="end" x="44" y="252">Thu 16<title>Thursday, 16 January 2020</title></text><rect class="chart-sleep" x="45" y="243" width="154.27872916666666" height="9"></rect><rect class="chart-sleep" x="539.4967777777778" y="243" width="105.5032222222222" height="9"></rect><line class="notch" x1="0" y1="255" x2="600" y2="255"></line><text class="date day-5" text-anchor="end" x="44" y="267">Fri 17<title>Friday, 17 January 2020</title></text><rect class="chart-sleep" x="45" y="258" width="207.42025538194446" height="9"></rect><rect class="chart-sleep" x="590.5686807291667" y="258" width="54.43131927083331" height="9"></rect><line class="notch" x1="0" y1="270" x2="600" y2="270"></line><text class="date day-6" text-anchor="end" x="44" y="282">Sat 18<title>Saturday, 18 January 2020</title></text><rect class="chart-sleep" x="45" y="273" width="177.74173958333333" height="9"></rect><rect class="chart-sleep" x="583.1972722222222" y="273" width="61.802727777777804" height="9"></rect><line class="notch" x1="0" y1="285" x2="600" y2="285"></line><text class="date day-0" text-anchor="end" x="44" y="297">Sun 19<title>Sunday, 19 January 2020</title></text><rect class="chart-sleep" x="45" y="288" width="208.68942604166665" height="9"></rect><line class="notch" x1="0" y1="300" x2="600" y2="300"></line><text class="date day-1" text-anchor="end" x="44" y="312">Mon 20<title>Monday, 20 January 2020</title></text><rect class="chart-sleep" x="49.63729479166667" y="303" width="234.49661128472223" height="9"></rect><line class="notch" x1="0" y1="315" x2="600" y2="315"></line><text class="date day-2" text-anchor="end" x="44" y="327">Tue 21<title>Tuesday, 21 January 2020</title></text><rect class="chart-sleep" x="101.23255503472222" y="318" width="228.79359444444444" height="9"></rect><line x1="50" x2="50" y1="0" y2="327" class="notch"></line><line x1="183.75" x2="183.75" y1="0" y2="327" class="notch"></line><line x1="322.5" x2="322.5" y1="0" y2="327" class="notch"></line><line x1="461.25" x2="461.25" y1="0" y2="327" class="notch"></line><line x1="50" x2="50" y1="0" y2="327" class="notch"></line><line x1="595" x2="595" y1="0" y2="327" class="notch"></line><rect class="chart-sleep chart-sleep-overlay" x="225.97218385416667" y="3" width="168.70484288194444" height="9"></rect><rect class="chart-sleep chart-sleep-overlay" x="233.00587100694446" y="18" width="178.39749392361108" height="9"></rect><rect class="chart-sleep chart-sleep-overlay" x="223.62073750000002" y="33" width="245.0989420138889" height="9"></rect><rect class="chart-sleep chart-sleep-overlay" x="283.7326911458333" y="48" width="257.64344513888886" height="9"></rect><rect class="chart-sleep chart-sleep-overlay" x="230.93284965277778" y="63" width="319.64967673611113" height="9"></rect><rect class="chart-sleep chart-sleep-overlay" x="317.34236059027774" y="78" width="218.64484774305555" height="9"></rect><rect class="chart-sleep chart-sleep-overlay" x="335.49015399305557" y="93" width="222.8704019097222" height="9"></rect><rect class="chart-sleep chart-sleep-overlay" x="315.0856946180555" y="108" width="303.52747274305557" height="9"></rect><rect class="chart-sleep chart-sleep-overlay" x="364.30448211805555" y="123" width="215.40982083333333" height="9"></rect><rect class="chart-sleep chart-sleep-overlay" x="412.1423024305555" y="138" width="232.85769756944447" height="9"></rect><rect class="chart-sleep chart-sleep-overlay" x="45" y="153" width="70.91656006944444" height="9"></rect><rect class="chart-sleep chart-sleep-overlay" x="448.99173940972224" y="153" width="166.78001423611113" height="9"></rect><rect class="chart-sleep chart-sleep-overlay" x="460.07024600694444" y="168" width="184.92975399305558" height="9"></rect><rect class="chart-sleep chart-sleep-overlay" x="45" y="183" width="102.52348246527777" height="9"></rect><rect class="chart-sleep chart-sleep-overlay" x="464.33039131944446" y="183" width="180.66960868055554" height="9"></rect><rect class="chart-sleep chart-sleep-overlay" x="45" y="198" width="77.3868001736111" height="9"></rect><rect class="chart-sleep chart-sleep-overlay" x="479.3145112847222" y="198" width="165.6854887152778" height="9"></rect><rect class="chart-sleep chart-sleep-overlay" x="45" y="213" width="149.86058229166667" height="9"></rect><rect class="chart-sleep chart-sleep-overlay" x="511.39607430555554" y="213" width="133.60392569444446" height="9"></rect><rect class="chart-sleep chart-sleep-overlay" x="45" y="228" width="154.32553802083333" height="9"></rect><rect class="chart-sleep chart-sleep-overlay" x="556.8278026041667" y="228" width="88.17219739583335" height="9"></rect><rect class="chart-sleep chart-sleep-overlay" x="45" y="243" width="154.27872916666666" height="9"></rect><rect class="chart-sleep chart-sleep-overlay" x="539.4967777777778" y="243" width="105.5032222222222" height="9"></rect><rect class="chart-sleep chart-sleep-overlay" x="45" y="258" width="207.42025538194446" height="9"></rect><rect class="chart-sleep chart-sleep-overlay" x="590.5686807291667" y="258" width="54.43131927083331" height="9"></rect><rect class="chart-sleep chart-sleep-overlay" x="45" y="273" width="177.74173958333333" height="9"></rect><rect class="chart-sleep chart-sleep-overlay" x="583.1972722222222" y="273" width="61.802727777777804" height="9"></rect><rect class="chart-sleep chart-sleep-overlay" x="45" y="288" width="208.68942604166665" height="9"></rect><rect class="chart-sleep chart-sleep-overlay" x="49.63729479166667" y="303" width="234.49661128472223" height="9"></rect><rect class="chart-sleep chart-sleep-overlay" x="101.23255503472222" y="318" width="228.79359444444444" height="9"></rect><text x="50" y="12">6pm</text><text x="183.75" y="12" text-anchor="middle">midnight</text><text x="322.5" y="12" text-anchor="middle">6am</text><text x="461.25" y="12" text-anchor="middle">noon</text><text x="595" y="12" text-anchor="end">6pm</text><text x="50" y="327">6pm</text><text x="183.75" y="327" text-anchor="middle">midnight</text><text x="322.5" y="327" text-anchor="middle">6am</text><text x="461.25" y="327" text-anchor="middle">noon</text><text x="595" y="327" text-anchor="end">6pm</text></svg>
