<svg xmlns="http://www.w3.org/2000/svg" viewBox="0 0 600 315" class="sleep-chart dark"><style>svg.sleep-chart{width:100%;height:auto;background:white}.sleep-chart text{font-family:sans-serif;font-size:11px;fill:black}.sleep-chart .notch{stroke-dasharray:4;stroke:#7F7F7F}.sleep-chart .day-0,.day-6{font-weight:bold}.sleep-chart .day-missing{opacity: 0.5}.sleep-chart .chart-sleep{fill:#CCCCFF;stroke:#AAAACC}.sleep-chart .chart-sleep-overlay{opacity: 0.5}.sleep-chart.dark{background:#3F3F3F}.sleep-chart.dark text{fill:white}.sleep-chart.dark .chart-sleep{fill:#0000FF;stroke:#6666CC}</style><text class="date day-2" text-anchor="end" x="44" y="12">Tue 31<title>Tuesday, 31 December 2019</title></text><rect class="chart-sleep" x="227.62961684027778" y="3" width="286.29314895833335" height="9"></rect><line class="notch" x1="0" y1="15" x2="600" y2="15"></line><text class="date day-3" text-anchor="end" x="44" y="27">Wed 1<title>Wednesday, 1 January 2020</title></text><rect class="chart-sleep" x="275.99875329861106" y="18" width="240.76831041666668" height="9"></rect><line class="notch" x1="0" y1="30" x2="600" y2="30"></line><text class="date day-4" text-anchor="end" x="44" y="42">Thu 2<title>Thursday, 2 January 2020</title></text><rect class="chart-sleep" x="213.78160243055558" y="33" width="275.6600555555555" height="9"></rect><line class="notch" x1="0" y1="45" x2="600" y2="45"></line><text class="date day-5" text-anchor="end" x="44" y="57">Fri 3<title>Friday, 3 January 2020</title></text><rect class="chart-sleep" x="271.36879427083335" y="48" width="217.8393590277778" height="9"></rect><line class="notch" x1="0" y1="60" x2="600" y2="60"></line><text class="date day-6" text-anchor="end" x="44" y="72">Sat 4<title>Saturday, 4 January 2020</title></text><rect class="chart-sleep" x="303.1841050347222" y="63" width="200.52758576388885" height="9"></rect><line class="notch" x1="0" y1="75" x2="600" y2="75"></line><text class="date day-0" text-anchor="end" x="44" y="87">Sun 5<title>Sunday, 5 January 2020</title></text><rect class="chart-sleep" x="308.1598342013889" y="78" width="183.9601548611111" height="9"></rect><line class="notch" x1="0" y1="90" x2="600" y2="90"></line><text class="date day-1" text-anchor="end" x="44" y="102">Mon 6<title>Monday, 6 January 2020</title></text><rect class="chart-sleep" x="287.21098020833335" y="93" width="238.62732725694445" height="9"></rect><line class="notch" x1="0" y1="105" x2="600" y2="105"></line><text class="date day-2" text-anchor="end" x="44" y="117">Tue 7<title>Tuesday, 7 January 2020</title></text><rect class="chart-sleep" x="279.40422430555554" y="108" width="230.73180347222223" height="9"></rect><line class="notch" x1="0" y1="120" x2="600" y2="120"></line><text class="date day-3" text-anchor="end" x="44" y="132">Wed 8<title>Wednesday, 8 January 2020</title></text><rect class="chart-sleep" x="257.71595486111113" y="123" width="241.5977784722222" height="9"></rect><line class="notch" x1="0" y1="135" x2="600" y2="135"></line><text class="date day-4" text-anchor="end" x="44" y="147">Thu 9<title>Thursday, 9 January 2020</title></text><rect class="chart-sleep" x="314.9186293402778" y="138" width="175.6033579861111" height="9"></rect><line class="notch" x1="0" y1="150" x2="600" y2="150"></line><text class="date day-5" text-anchor="end" x="44" y="162">Fri 10<title>Friday, 10 January 2020</title></text><rect class="chart-sleep" x="274.59037656249996" y="153" width="208.42365555555554" height="9"></rect><line class="notch" x1="0" y1="165" x2="600" y2="165"></line><text class="date day-6" text-anchor="end" x="44" y="177">Sat 11<title>Saturday, 11 January 2020</title></text><rect class="chart-sleep" x="300.8323696180555" y="168" width="185.8417590277778" height="9"></rect><line class="notch" x1="0" y1="180" x2="600" y2="180"></line><text class="date day-0" text-anchor="end" x="44" y="192">Sun 12<title>Sunday, 12 January 2020</title></text><rect class="chart-sleep" x="276.36793750000004" y="183" width="240.4155192708333" height="9"></rect><line class="notch" x1="0" y1="195" x2="600" y2="195"></line><text class="date day-1" text-anchor="end" x="44" y="207">Mon 13<title>Monday, 13 January 2020</title></text><rect class="chart-sleep" x="336.59800850694444" y="198" width="181.49021857638888" height="9"></rect><line class="notch" x1="0" y1="210" x2="600" y2="210"></line><text class="date day-2" text-anchor="end" x="44" y="222">Tue 14<title>Tuesday, 14 January 2020</title></text><rect class="chart-sleep" x="280.93734114583333" y="213" width="243.07869704861113" height="9"></rect><line class="notch" x1="0" y1="225" x2="600" y2="225"></line><text class="date day-3" text-anchor="end" x="44" y="237">Wed 15<title>Wednesday, 15 January 2020</title></text><rect class="chart-sleep" x="288.3054414930556" y="228" width="229.62585034722224" height="9"></rect><line class="notch" x1="0" y1="240" x2="600" y2="240"></line><text class="date day-4" text-anchor="end" x="44" y="252">Thu 16<title>Thursday, 16 January 2020</title></text><rect class="chart-sleep" x="266.51285260416665" y="243" width="228.9268201388889" height="9"></rect><line class="notch" x1="0" y1="255" x2="600" y2="255"></line><text class="date day-5" text-anchor="end" x="44" y="267">Fri 17<title>Friday, 17 January 2020</title></text><rect class="chart-sleep" x="234.99445399305557" y="258" width="240.4009440972222" height="9"></rect><line class="notch" x1="0" y1="270" x2="600" y2="270"></line><text class="date day-6" text-anchor="end" x="44" y="282">Sat 18<title>Saturday, 18 January 2020</title></text><rect class="chart-sleep" x="277.85132274305556" y="273" width="217.9039869791667" height="9"></rect><line class="notch" x1="0" y1="285" x2="600" y2="285"></line><text class="date day-0" text-anchor="end" x="44" y="297">Sun 19<title>Sunday, 19 January 2020</title></text><rect class="chart-sleep" x="262.3729380208333" y="288" width="281.8793251736111" height="9"></rect><line class="notch" x1="0" y1="300" x2="600" y2="300"></line><text class="date day-1" text-anchor="end" x="44" y="312">Mon 20<title>Monday, 20 January 2020</title></text><rect class="chart-sleep" x="269.40499357638885" y="303" width="220.52756961805554" height="9"></rect><line x1="50" x2="50" y1="0" y2="312" class="notch"></line><line x1="183.75" x2="183.75" y1="0" y2="312" class="notch"></line><line x1="322.5" x2="322.5" y1="0" y2="312" class="notch"></line><line x1="461.25" x2="461.25" y1="0" y2="312" class="notch"></line><line x1="50" x2="50" y1="0" y2="312" class="notch"></line><line x1="595" x2="595" y1="0" y2="312" class="notch"></line><rect class="chart-sleep chart-sleep-overlay" x="227.62961684027778" y="3" width="286.29314895833335" height="9"></rect><rect class="chart-sleep chart-sleep-overlay" x="275.99875329861106" y="18" width="240.76831041666668" height="9"></rect><rect class="chart-sleep chart-sleep-overlay" x="213.78160243055558" y="33" width="275.6600555555555" height="9"></rect><rect class="chart-sleep chart-sleep-overlay" x="271.36879427083335" y="48" width="217.8393590277778" height="9"></rect><rect class="chart-sleep chart-sleep-overlay" x="303.1841050347222" y="63" width="200.52758576388885" height="9"></rect><rect class="chart-sleep chart-sleep-overlay" x="308.1598342013889" y="78" width="183.9601548611111" height="9"></rect><rect class="chart-sleep chart-sleep-overlay" x="287.21098020833335" y="93" width="238.62732725694445" height="9"></rect><rect class="chart-sleep chart-sleep-overlay" x="279.40422430555554" y="108" width="230.73180347222223" height="9"></rect><rect class="chart-sleep chart-sleep-overlay" x="257.71595486111113" y="123" width="241.5977784722222" height="9"></rect><rect class="chart-sleep chart-sleep-overlay" x="314.9186293402778" y="138" width="175.6033579861111" height="9"></rect><rect class="chart-sleep chart-sleep-overlay" x="274.59037656249996" y="153" width="208.42365555555554" height="9"></rect><rect class="chart-sleep chart-sleep-overlay" x="300.8323696180555" y="168" width="185.8417590277778" height="9"></rect><rect class="chart-sleep chart-sleep-overlay" x="276.36793750000004" y="183" width="240.4155192708333" height="9"></rect><rect class="chart-sleep chart-sleep-overlay" x="336.59800850694444" y="198" width="181.49021857638888" height="9"></rect><rect class="chart-sleep chart-sleep-overlay" x="280.93734114583333" y="213" width="243.07869704861113" height="9"></rect><rect class="chart-sleep chart-sleep-overlay" x="288.3054414930556" y="228" width="229.62585034722224" height="9"></rect><rect class="chart-sleep chart-sleep-overlay" x="266.51285260416665" y="243" width="228.9268201388889" height="9"></rect><rect class="chart-sleep chart-sleep-overlay" x="234.99445399305557" y="258" width="240.4009440972222" height="9"></rect><rect class="chart-sleep chart-sleep-overlay" x="277.85132274305556" y="273" width="217.9039869791667" height="9"></rect><rect class="chart-sleep chart-sleep-overlay" x="262.3729380208333" y="288" width="281.8793251736111" height="9"></rect><rect class="chart-sleep chart-sleep-overlay" x="269.40499357638885" y="303" width="220.52756961805554" height="9"></rect><text x="50" y="12">6pm</text><text x="183.75" y="12" text-anchor="middle">midnight</text><text x="322.5" y="12" text-anchor="middle">6am</text><text x="461.25" y="12" text-anchor="middle">noon</text><text x="595" y="12" text-anchor="end">6pm</text><text x="50" y="312">6pm</text><text x="183.75" y="312" text-anchor="middle">midnight</text><text x="322.5" y="312" text-anchor="middle">6am</text><text x="461.25" y="312" text-anchor="middle">noon</text><text x="595" y="312" text-anchor="end">6pm</text></svg>
